{"title":"8thStreetLatinas ~ Serena Torres - Dive In","uid":10799416,"size":473980875,"categoryP":"porn","categoryS":"movie_clips","magnet":"?xt=urn:btih:1729dcb796d0bf727b4d1337bdde7ca9c1d80d6d&amp;dn=8thStreetLatinas+%7E+Serena+Torres+-+Dive+In&amp;tr=udp%3A%2F%2Ftracker.openbittorrent.com%3A80&amp;tr=udp%3A%2F%2Fopen.demonii.com%3A1337&amp;tr=udp%3A%2F%2Ftracker.coppersurfer.tk%3A6969&amp;tr=udp%3A%2F%2Fexodus.desync.com%3A6969","seeders":0,"leechers":0,"uploader":"ThousandPeers","files":-1,"time":1408326403,"description":"Format                                   : MPEG-4\nFormat profile                           : Base Media / Version 2\nCodec ID                                 : mp42\nFile size                                : 451 MiB\nDuration                                 : 40mn 56s\nOverall bit rate mode                    : Variable\nOverall bit rate                         : 1 540 Kbps\nEncoded date                             : UTC 2014-01-22 21:36:55\nTagged date                              : UTC 2014-01-22 21:36:55\nWriting library                          : Apple QuickTime\n\nVideo\nID                                       : 1\nFormat                                   : AVC\nFormat/Info                              : Advanced Video Codec\nFormat profile                           : &lt;a class=&quot;__cf_email__&quot; href=&quot;/cdn-cgi/l/email-protection&quot; data-cfemail=&quot;2e634f47406e621d001e&quot;&gt;[email&amp;#160;protected]&lt;/a&gt;&lt;script cf-hash='f9e31' type=&quot;text/javascript&quot;&gt;\n/* &lt;![CDATA[ */!function(){try{var t=&quot;currentScript&quot;in document?document.currentScript:function(){for(var t=document.getElementsByTagName(&quot;script&quot;),e=t.length;e--;)if(t[e].getAttribute(&quot;cf-hash&quot;))return t[e]}();if(t&amp;&amp;t.previousSibling){var e,r,n,i,c=t.previousSibling,a=c.getAttribute(&quot;data-cfemail&quot;);if(a){for(e=&quot;&quot;,r=parseInt(a.substr(0,2),16),n=2;a.length-n;n+=2)i=parseInt(a.substr(n,2),16)^r,e+=String.fromCharCode(i);e=document.createTextNode(e),c.parentNode.replaceChild(e,c)}}}catch(u){}}();/* ]]&gt; */&lt;/script&gt;\nFormat settings, CABAC                   : No\nFormat settings, ReFrames                : 6 frames\nCodec ID                                 : avc1\nCodec ID/Info                            : Advanced Video Coding\nDuration                                 : 40mn 56s\nSource duration                          : 40mn 56s\nBit rate mode                            : Variable\nBit rate                                 : 1 438 Kbps\nMaximum bit rate                         : 1 500 Kbps\nWidth                                    : 768 pixels\nHeight                                   : 432 pixels\nDisplay aspect ratio                     : 16:9\nFrame rate mode                          : Constant\nFrame rate                               : 29.970 fps\nStandard                                 : Component\nColor space                              : YUV\nChroma subsampling                       : 4:2:0\nBit depth                                : 8 bits\nScan type                                : Progressive\nBits/(Pixel*Frame)                       : 0.145\nStream size                              : 421 MiB (93%)\nSource stream size                       : 440 MiB (98%)\nEncoded date                             : UTC 2014-01-22 21:36:55\nTagged date                              : UTC 2014-01-21 21:38:17\n\nAudio\nID                                       : 2\nFormat                                   : AAC\nFormat/Info                              : Advanced Audio Codec\nFormat profile                           : LC\nCodec ID                                 : 40\nDuration                                 : 40mn 56s\nBit rate mode                            : Variable\nBit rate                                 : 32.0 Kbps\nMaximum bit rate                         : 34.8 Kbps\nChannel(s)                               : 1 channel\nChannel positions                        : Front: C\nSampling rate                            : 32.0 KHz\nCompression mode                         : Lossy\nStream size                              : 9.37 MiB (2%)","torrent":{"xt":"urn:btih:1729dcb796d0bf727b4d1337bdde7ca9c1d80d6d","amp;dn":"8thStreetLatinas+%7E+Serena+Torres+-+Dive+In","amp;tr":["udp%3A%2F%2Ftracker.openbittorrent.com%3A80","udp%3A%2F%2Fopen.demonii.com%3A1337","udp%3A%2F%2Ftracker.coppersurfer.tk%3A6969","udp%3A%2F%2Fexodus.desync.com%3A6969"],"infoHash":"1729dcb796d0bf727b4d1337bdde7ca9c1d80d6d","infoHashBuffer":{"type":"Buffer","data":[23,41,220,183,150,208,191,114,123,77,19,55,189,222,124,169,193,216,13,109]},"announce":[],"urlList":[]}}